# xmcd CD database file
#
# Track frame offsets:
#	150
#	33413
#	49220
#	66299
#	85901
#	121414
#	146622
#	169834
#	185755
#	203943
#
# Disc length: 3003 seconds
#
# Revision: 1
# Processed by: cddbd v1.5.2PL0 Copyright (c) Steve Scherf et al.
# Submitted via: CDex 1.70beta2
#
DISCID=950bb90a
DTITLE=Spencer Bohren - The Long Black Line
DYEAR=2006
DGENRE=Blues
TTITLE0=Long Black Line
TTITLE1=Canned Heat
TTITLE2=Full Moon
TTITLE3=Iowa Night
TTITLE4=Ode to Billy Jo
TTITLE5=Deportees
TTITLE6=Sand to Sand
TTITLE7=Cairo Blues
TTITLE8=Another Day
TTITLE9=Somebody on Your Bond
EXTD=YEAR: 2006
EXTT0=
EXTT1=
EXTT2=
EXTT3=
EXTT4=
EXTT5=
EXTT6=
EXTT7=
EXTT8=
EXTT9=
PLAYORDER=
